<?xml version="1.0" encoding="UTF-8"?>
<svg version="1.1" xmlns="http://www.w3.org/2000/svg" width="1000" height="1000">
<path d="M0 0 C92.73 0 185.46 0 281 0 C281 11.55 281 23.1 281 35 C207.08 35 133.16 35 57 35 C57 85.82 57 136.64 57 189 C120.36 189 183.72 189 249 189 C249 198.9 249 208.8 249 219 C185.64 219 122.28 219 57 219 C57 278.4 57 337.8 57 399 C130.92 399 204.84 399 281 399 C281 410.55 281 422.1 281 434 C188.27 434 95.54 434 0 434 C0 290.78 0 147.56 0 0 Z " fill="#A41AD6" transform="translate(133,283)"/>
<path d="M0 0 C1.34888732 0.00015905 2.69778075 0.00584927 4.04663086 0.01586914 C5.10991859 0.01799156 5.10991859 0.01799156 6.19468689 0.02015686 C8.46699173 0.02577096 10.73919936 0.03832576 13.01147461 0.05102539 C14.54858257 0.05603858 16.08569206 0.0606018 17.62280273 0.06469727 C21.39823103 0.07574497 25.17358632 0.09301898 28.94897461 0.11352539 C34.51124183 11.12103767 39.88889601 22.20287015 45.13647461 33.36352539 C45.88291253 34.94770209 46.62941428 36.53184871 47.37597656 38.1159668 C52.88510988 49.81443389 58.3437806 61.53590258 63.77709961 73.26977539 C67.13275083 80.51597616 70.50788094 87.75300272 73.88647461 94.98852539 C74.17726898 95.61136414 74.46806335 96.23420288 74.76766968 96.87591553 C76.23923873 100.02778539 77.71098996 103.17957013 79.18286133 106.33129883 C81.81471806 111.96717571 84.4447834 117.60388856 87.07498169 123.24053955 C88.53290574 126.36490251 89.99094607 129.4892112 91.44897461 132.61352539 C92.0323085 133.86352513 92.61564183 135.11352513 93.19897461 136.36352539 C93.63209961 137.29165039 93.63209961 137.29165039 94.07397461 138.23852539 C96.69897462 143.86352542 96.69897462 143.86352542 97.5740509 145.73869324 C98.15712547 146.98813583 98.74020449 148.23757634 99.32328796 149.48701477 C100.78561706 152.62052608 102.24786768 155.75407396 103.70996094 158.88769531 C106.5626682 165.00153 109.41654582 171.11481156 112.27319336 177.22680664 C117.36196777 188.11794346 122.44304351 199.01242817 127.49194336 209.92211914 C128.08160637 211.19625168 128.08160637 211.19625168 128.68318176 212.49612427 C129.4896721 214.23886784 130.29615498 215.98161486 131.10263062 217.72436523 C137.79452134 232.18464134 144.52264926 246.62656149 151.31994629 261.03759766 C156.83849382 272.73781897 162.30258445 284.46216396 167.74194336 296.19946289 C171.11105359 303.46828452 174.49701237 310.72917882 177.88647461 317.98852539 C178.17717834 318.61118286 178.46788208 319.23384033 178.76739502 319.87536621 C180.23905342 323.02742021 181.71090474 326.17938407 183.18286133 329.33129883 C186.39765408 336.21547906 189.60994435 343.10082751 192.82269287 349.98596191 C193.69680242 351.85921953 194.57092871 353.73246933 195.44506836 355.60571289 C195.73361694 356.22406006 196.02216553 356.84240723 196.31945801 357.47949219 C198.0789362 361.24976753 199.83900029 365.01976878 201.59950256 368.78956604 C207.46636498 381.35239314 213.32910921 393.91711359 219.17086792 406.49163818 C219.98020375 408.23371557 220.78989934 409.97562581 221.59960938 411.7175293 C222.58260051 413.83486327 223.56388957 415.95298855 224.54321289 418.07202148 C225.50110796 420.14452179 226.46319562 422.21508825 227.42895508 424.28393555 C227.88802246 425.27570801 228.34708984 426.26748047 228.82006836 427.28930664 C229.2305542 428.17142822 229.64104004 429.0535498 230.06396484 429.96240234 C230.94897461 432.11352539 230.94897461 432.11352539 230.94897461 434.11352539 C210.81897461 434.11352539 190.68897461 434.11352539 169.94897461 434.11352539 C160.74654186 415.70865988 160.74654186 415.70865988 157.72241211 409.29321289 C157.37239136 408.55424774 157.02237061 407.81528259 156.66174316 407.05392456 C155.54731949 404.69965371 154.43552458 402.34415421 153.32397461 399.98852539 C152.53123032 398.31173841 151.73842325 396.6349811 150.94555664 394.95825195 C145.64964027 383.75105576 140.3867454 372.5286904 135.16210938 361.28808594 C132.01331875 354.51724691 128.83767281 347.76024745 125.63256836 341.01586914 C124.53366662 338.69870691 123.43506477 336.38140267 122.33648682 334.06408691 C121.62982566 332.57645947 120.92134162 331.08969632 120.21087646 329.60388184 C119.21921082 327.5298339 118.23395109 325.45284514 117.24975586 323.37524414 C116.68426025 322.18890381 116.11876465 321.00256348 115.53613281 319.78027344 C113.75231227 315.65918425 112.36902362 311.37367241 110.94897461 307.11352539 C40.32897461 307.11352539 -30.29102539 307.11352539 -103.05102539 307.11352539 C-104.04102539 310.08352539 -105.03102539 313.05352539 -106.05102539 316.11352539 C-106.78937633 318.02091895 -107.55163852 319.9193323 -108.34399414 321.80493164 C-108.79709961 322.88581055 -109.25020508 323.96668945 -109.71704102 325.08032227 C-110.47017578 326.86019531 -110.47017578 326.86019531 -111.23852539 328.67602539 C-111.78873687 329.9826318 -112.33886334 331.289274 -112.88891602 332.59594727 C-119.3982681 348.02817133 -126.02642193 363.41017328 -132.63388062 378.80056763 C-140.5330366 397.20058878 -148.34948874 415.62983742 -156.05102539 434.11352539 C-165.95102539 434.11352539 -175.85102539 434.11352539 -186.05102539 434.11352539 C-182.67615342 423.98890948 -182.67615342 423.98890948 -181.26782227 420.67504883 C-180.78841187 419.53981781 -180.78841187 419.53981781 -180.29931641 418.38165283 C-179.95956787 417.58676453 -179.61981934 416.79187622 -179.26977539 415.97290039 C-178.72148071 414.67832916 -178.72148071 414.67832916 -178.16210938 413.35760498 C-176.96155779 410.52490012 -175.75626493 407.69423842 -174.55102539 404.86352539 C-173.69844807 402.85391406 -172.84624128 400.8441455 -171.99438477 398.83422852 C-170.22563555 394.66174366 -168.45529928 390.48993758 -166.68383789 386.31860352 C-163.01692991 377.6806543 -159.36946221 369.03451293 -155.72186279 360.38839722 C-153.75186488 355.71952374 -151.78021441 351.05134814 -149.80883789 346.38305664 C-147.01721233 339.77176726 -144.22661911 333.16004354 -141.4372406 326.54780579 C-133.43586688 307.58063089 -125.42355935 288.61835747 -117.36352539 269.67602539 C-111.27893233 255.37614478 -105.22880345 241.0621669 -99.20385742 226.73706055 C-98.53703608 225.15160793 -97.87020659 223.56615874 -97.20336914 221.98071289 C-96.86915955 221.1860965 -96.53494995 220.3914801 -96.19061279 219.57278442 C-92.04908968 209.7283276 -87.89376978 199.88969652 -83.73852539 190.05102539 C-83.34151428 189.11094635 -82.94450317 188.17086731 -82.53546143 187.20230103 C-80.51520702 182.41859325 -78.49482455 177.63493959 -76.47436523 172.85131836 C-72.89396236 164.37420126 -69.31477354 155.89657156 -65.73550415 147.41897583 C-63.75739534 142.73380424 -61.77920627 138.04866655 -59.80102539 133.36352539 C-59.00935834 131.48852555 -58.21769167 129.61352555 -57.42602539 127.73852539 C-55.84269206 123.98852539 -54.25935872 120.23852539 -52.67602539 116.48852539 C-52.2841806 115.56047089 -51.89233582 114.63241638 -51.48861694 113.67623901 C-50.69664817 111.80052564 -49.90467633 109.92481356 -49.11270142 108.04910278 C-47.13813184 103.372528 -45.16361498 98.69593096 -43.18920898 94.01928711 C-39.57200041 85.45159469 -35.95435635 76.88408722 -32.33480835 68.31738281 C-30.68661392 64.41638255 -29.03868785 60.51526895 -27.39080811 56.61413574 C-26.58643392 54.71003659 -25.78195138 52.80598322 -24.97735596 50.90197754 C-20.97032138 41.41923402 -16.96978226 31.93398191 -13.00415039 22.43383789 C-12.69424164 21.69199249 -12.38433289 20.95014709 -12.06503296 20.18582153 C-10.63799366 16.76934946 -9.21340361 13.35190052 -7.79370117 9.93237305 C-7.30885254 8.77012207 -6.82400391 7.60787109 -6.32446289 6.41040039 C-5.69677002 4.89978027 -5.69677002 4.89978027 -5.05639648 3.35864258 C-3.61257876 0.13442019 -3.61257876 0.13442019 0 0 Z M-1.05102539 70.11352539 C-5.688176 78.77763805 -9.3889393 87.83524775 -13.1734314 96.89175415 C-15.27265847 101.91322244 -17.38473598 106.92928233 -19.49633789 111.94555664 C-19.94452377 113.01067978 -20.39270966 114.07580292 -20.85447693 115.17320251 C-26.09502536 127.61398298 -31.41462542 140.02073973 -36.73852539 152.42602539 C-37.23833923 153.59103577 -37.73815308 154.75604614 -38.25311279 155.95635986 C-40.8145021 161.92657479 -43.37675214 167.89641961 -45.93969727 173.8659668 C-63.97347394 215.86812729 -63.97347394 215.86812729 -81.92434692 257.90576172 C-82.66926396 259.65470964 -83.41475794 261.40341196 -84.16085815 263.15185547 C-85.16771363 265.51201564 -86.172253 267.87314643 -87.17602539 270.23461914 C-87.47158829 270.92639755 -87.76715118 271.61817596 -88.07167053 272.33091736 C-89.45778855 275.12719301 -89.45778855 275.12719301 -90.05102539 278.11352539 C-28.34102539 278.11352539 33.36897461 278.11352539 96.94897461 278.11352539 C92.74286109 267.99579879 92.74286109 267.99579879 88.19897461 258.05102539 C87.86435211 257.34573196 87.52972961 256.64043854 87.18496704 255.91377258 C86.47509653 254.41808006 85.76403122 252.92295405 85.05181885 251.42837524 C83.14407594 247.42405783 81.24639769 243.41496998 79.34741211 239.40649414 C78.96757172 238.60527634 78.58773132 237.80405853 78.19638062 236.9785614 C74.95726928 230.14226432 71.75438596 223.28985919 68.57397461 216.42602539 C67.81370972 214.78561279 67.81370972 214.78561279 67.03808594 213.11206055 C65.34054893 209.44642124 63.64456478 205.78006546 61.94897461 202.11352539 C58.84610791 195.40459008 55.74211228 188.69617847 52.63647461 181.98852539 C52.23130615 181.11335266 51.8261377 180.23817993 51.40869141 179.33648682 C45.51061423 166.60024209 39.56652413 153.88656605 33.57928467 141.1920166 C29.112125 131.72027796 24.6684066 122.23849055 20.26147461 112.73852539 C19.74431885 111.62525879 19.22716309 110.51199219 18.69433594 109.36499023 C16.19640311 103.98235798 13.70888719 98.59525177 11.24299622 93.19787598 C10.04248205 90.57204899 8.83732363 87.94836672 7.63168335 85.32489014 C7.05561793 84.06786952 6.48187221 82.80978302 5.91055298 81.55059814 C5.12302723 79.81508969 4.32722319 78.08334479 3.53100586 76.35180664 C2.8538855 74.86741089 2.8538855 74.86741089 2.16308594 73.35302734 C1.15110535 70.97577158 1.15110535 70.97577158 -1.05102539 70.11352539 Z " fill="#3330EB" transform="translate(636.051025390625,282.886474609375)"/>
</svg>
